<?xml version="1.0" standalone="no"?>
<!DOCTYPE svg PUBLIC "-//W3C//DTD SVG 20010904//EN"
 "http://www.w3.org/TR/2001/REC-SVG-20010904/DTD/svg10.dtd">
<svg version="1.0" xmlns="http://www.w3.org/2000/svg"
 width="200.000000pt" height="55.000000pt" viewBox="0 0 200.000000 55.000000"
 preserveAspectRatio="xMidYMid meet">

<g transform="translate(0.000000,55.000000) scale(0.100000,-0.100000)"
fill="#000000" stroke="none">
<path d="M112 528 c-6 -8 -7 -19 -3 -26 14 -23 -6 -134 -27 -151 -11 -9 -23
-34 -27 -59 -4 -26 -15 -48 -28 -58 -17 -13 -18 -15 -4 -10 10 3 20 6 22 6 2
0 9 17 17 38 12 34 13 27 18 -113 4 -124 8 -150 20 -150 12 0 16 18 18 88 l3
87 59 0 c53 0 60 2 60 20 0 18 -7 20 -60 20 l-60 0 0 35 0 35 80 0 c73 0 80 2
80 20 0 18 -7 20 -62 20 l-63 0 0 38 c1 20 4 44 8 53 5 9 7 38 5 65 -2 41 -6
49 -24 52 -11 2 -26 -3 -32 -10z"/>
<path d="M380 165 l0 -166 97 3 c84 3 98 6 101 21 3 15 -6 17 -77 17 l-81 0 0
55 0 55 40 0 c29 0 40 4 40 15 0 11 -11 15 -40 15 l-40 0 0 55 0 55 81 0 c71
0 80 2 77 18 -3 14 -17 17 -101 20 l-97 3 0 -166z"/>
<path d="M682 293 c3 -41 26 -57 35 -24 3 12 13 21 24 21 17 0 19 -11 21 -142
3 -119 5 -143 18 -143 13 0 15 24 18 143 2 136 3 142 23 142 13 0 23 -8 26
-20 9 -32 28 -17 31 23 l3 37 -101 0 -101 0 3 -37z"/>
<path d="M980 165 l0 -165 100 0 c93 0 100 1 100 20 0 18 -7 20 -80 20 l-80 0
0 55 0 55 40 0 c29 0 40 4 40 15 0 11 -11 15 -40 15 l-40 0 0 55 0 55 80 0
c73 0 80 2 80 20 0 19 -7 20 -100 20 l-100 0 0 -165z"/>
<path d="M1359 320 c-9 -5 -30 -41 -49 -80 l-32 -72 28 -70 c15 -38 37 -76 48
-84 11 -8 44 -14 73 -14 46 0 53 3 53 19 0 17 -8 20 -52 23 -52 3 -53 4 -80
53 -15 28 -28 59 -28 70 0 11 13 43 28 70 27 49 28 50 80 53 44 3 52 6 52 23
0 16 -7 19 -52 19 -29 0 -60 -5 -69 -10z"/>
<path d="M1585 318 c-3 -8 -4 -81 -3 -163 3 -125 5 -150 18 -150 11 0 16 17
20 70 l5 70 60 0 60 0 3 -73 c2 -55 6 -72 17 -72 13 0 15 27 15 165 0 138 -2
165 -15 165 -11 0 -15 -17 -17 -72 l-3 -73 -62 -3 -62 -3 -3 72 c-2 47 -7 74
-15 77 -7 2 -15 -3 -18 -10z"/>
<path d="M1822 299 c-11 -17 -11 -23 -2 -29 16 -10 4 -47 -18 -54 -9 -3 -5 -4
10 -2 15 2 25 -1 22 -6 -3 -4 4 -23 15 -42 11 -18 18 -36 14 -39 -3 -4 0 -7 9
-7 8 0 38 -26 66 -57 54 -60 70 -61 27 -2 -13 19 -33 50 -44 70 -11 19 -27 41
-35 48 -9 8 -16 21 -16 30 0 9 -6 23 -12 29 -10 10 -10 15 0 21 18 11 11 55
-8 59 -8 1 -21 -7 -28 -19z"/>
<path d="M1831 127 c-8 -10 -7 -26 5 -62 14 -40 14 -49 3 -56 -16 -10 -8 -12
14 -3 11 4 12 14 6 49 -4 24 -6 53 -4 64 4 24 -7 27 -24 8z"/>
</g>
</svg>
